<?xml version="1.0" encoding="utf-8"?>
<!-- Generator: Adobe Illustrator 16.0.0, SVG Export Plug-In . SVG Version: 6.00 Build 0)  -->
<!DOCTYPE svg PUBLIC "-//W3C//DTD SVG 1.1//EN" "http://www.w3.org/Graphics/SVG/1.1/DTD/svg11.dtd">
<svg version="1.1" xmlns="http://www.w3.org/2000/svg" xmlns:xlink="http://www.w3.org/1999/xlink" x="0px" y="0px" viewBox="0 0 500 300" enable-background="new 0 0 500 500" xml:space="preserve">
<g id="Capa_1">
	<path fill="none" d="M110.75,477.53c0,0,278.686,18.129,279.309,14.009c0.623-4.118,105.987-182.94,105.987-182.94L237.935,6.172
		L4.139,318.488L110.75,477.53z"/>
	<text class="texto_proyecto" transform="matrix(1 0 0 1 235.1318 28.8394)"><tspan x="0" y="0"  font-size="12">f </tspan><tspan x="-6.445" y="14.4"  font-size="12">you </tspan><tspan x="-9.291" y="28.8" font-size="12">were </tspan><tspan x="-26.538" y="43.2"  font-size="12">trying to </tspan><tspan x="-32.984" y="57.6"  font-size="12">replicate a </tspan><tspan x="-61.034" y="72" font-size="12">design like this in </tspan><tspan x="-60.279" y="86.4" font-size="12">just HTML/CSS, it&apos;s </tspan><tspan x="-73.927" y="100.8"  font-size="12">not just that the posi</tspan><tspan x="84.499" y="100.8" font-size="12">-</tspan><tspan x="-83.973" y="115.2" font-size="12">tioning would be finnicky, </tspan><tspan x="-101.22" y="129.6" font-size="12">it&apos;s that it doesn&apos;t scale. So</tspan><tspan x="114.815" y="129.6" font-size="12">-</tspan><tspan x="-111.267" y="144" font-size="12">mething like font-size: 41px; top: </tspan><tspan x="-114.112" y="158.4" font-size="12">37px; left: 81px; works only at one </tspan><tspan x="-134.961" y="172.8" font-size="12">size. Perhaps you could do something with </tspan><tspan x="-145.008" y="187.2" font-size="12">vw units and percentages and stuff, but it&apos;s </tspan><tspan x="-75.842" y="201.6" font-size="12">just a lot easier in SVG.</tspan><tspan x="-175.147" y="230.4" font-size="12">In SVG, the font-size you set is relative to the size </tspan><tspan x="-170.791" y="244.8" font-size="12">of the SVG itself, not the whole document. So if you </tspan><tspan x="-191.64" y="259.2" font-family="'AndaleMono'" font-size="12">adjust the size of the SVG (it can easily be fluid width), </tspan><tspan x="-151.278" y="273.6" font-size="12">your typographic design stays perfectly intact.</tspan><tspan x="-81.042" y="302.4" font-size="12">A fluid width kinda setup:</tspan></text>
</g>
</svg>
